<svg width="136" height="125" viewBox="0 0 136 125" fill="none" xmlns="http://www.w3.org/2000/svg">
<path fill-rule="evenodd" clip-rule="evenodd" d="M81.5211 0.605996L81.5207 0.605989C74.6511 0.454132 67.601 0.298289 60.828 1.41829C60.5556 1.46334 60.3712 1.72072 60.4163 1.99316C60.4613 2.26561 60.7187 2.44994 60.9911 2.40489C67.667 1.30096 74.6238 1.4543 81.5108 1.60609C82.1566 1.62033 82.8018 1.63455 83.4461 1.64771C96.4066 1.91262 110.423 3.0507 121.332 8.92622C125.121 10.9675 128.875 13.789 131.4 17.0458C133.923 20.3005 135.18 23.9326 134.125 27.6536C132.949 31.8025 129.916 35.2735 125.913 38.0803C121.912 40.8855 116.981 42.9995 112.088 44.4428C93.2673 49.9941 69.3007 47.8634 52.6342 39.0442C49.4079 37.337 45.6872 34.7506 42.87 31.7565C40.0376 28.7464 38.2048 25.4185 38.5394 22.2109C39.0532 17.2861 43.195 13.8818 48.7263 11.5794C54.233 9.28725 60.9503 8.16259 66.2725 7.71127C76.8907 6.81083 87.9288 7.03804 98.5711 7.80163C98.8466 7.82139 99.0859 7.61413 99.1057 7.3387C99.1254 7.06326 98.9182 6.82396 98.6427 6.8042C87.9684 6.03831 76.8749 5.80858 66.188 6.71485C60.8176 7.17026 53.9845 8.30753 48.3421 10.6562C42.7242 12.9946 38.1183 16.6099 37.5448 22.1071C37.1641 25.7569 39.2476 29.366 42.1417 32.4418C45.0511 35.5337 48.8672 38.1823 52.1665 39.9281C53.1212 40.4333 54.0993 40.9168 55.0986 41.3785C54.0985 41.4042 53.0886 41.4703 52.0836 41.6406C46.1848 42.6404 41.915 46.0693 39.1055 51.2136C36.0994 56.7177 35.4254 62.3861 35.5761 68.4887C35.6397 71.0615 35.7393 73.6238 35.8387 76.1818L35.8388 76.1824C36.0102 80.5916 36.1812 84.988 36.1658 89.4026C36.147 94.8175 35.5135 99.9245 32.4318 104.398C29.3297 108.901 25.1202 113.088 20.224 115.499C17.5253 116.828 14.6834 117.814 11.815 118.809L11.8148 118.809C10.391 119.303 8.96058 119.799 7.53801 120.341C5.53358 121.104 3.62227 122.06 1.73525 123.003L1.57018 123.086C1.50605 123.118 1.4038 123.178 1.30573 123.236L1.30563 123.236L1.25548 123.266C1.13041 123.34 0.993031 123.419 0.865072 123.487C0.80531 123.518 0.754554 123.543 0.713013 123.562C0.666792 123.548 0.617729 123.54 0.566895 123.54C0.290752 123.54 0.0668945 123.764 0.0668945 124.04C0.0668945 124.134 0.0894153 124.262 0.178026 124.38C0.267995 124.5 0.386907 124.559 0.482929 124.584C0.644856 124.627 0.793729 124.591 0.85745 124.573C1.01366 124.531 1.18915 124.446 1.33047 124.372C1.48171 124.292 1.63729 124.202 1.76291 124.128L1.81756 124.095L1.81761 124.095C1.92337 124.033 1.98738 123.995 2.01739 123.98L2.16548 123.906C4.06524 122.956 5.93707 122.02 7.89379 121.275C9.25585 120.757 10.6548 120.271 12.0637 119.782L12.0642 119.782C14.9675 118.774 17.9132 117.752 20.6658 116.396C25.758 113.888 30.0874 109.564 33.2553 104.965C36.5117 100.238 37.1468 94.8798 37.1658 89.4061C37.1812 84.9745 37.0088 80.5358 36.8368 76.1088L36.8368 76.1087C36.7376 73.5553 36.6386 71.0059 36.5758 68.464C36.4274 62.4513 37.0947 56.9815 39.9831 51.6929C42.6652 46.782 46.6915 43.5688 52.2507 42.6266C53.8102 42.3623 55.3942 42.3623 57.0259 42.3623H57.0511C57.1198 42.3623 57.1853 42.3484 57.245 42.3233C73.6968 49.2175 95.1491 50.4816 112.371 45.402C117.334 43.9381 122.372 41.7842 126.487 38.8991C130.599 36.0156 133.826 32.3741 135.087 27.9263C136.259 23.7923 134.827 19.8352 132.19 16.4331C129.554 13.0331 125.676 10.1302 121.806 8.0458C110.664 2.04496 96.4272 0.912835 83.4665 0.647923C82.8199 0.634707 82.1713 0.62037 81.5211 0.605996ZM0.588994 123.61C0.588909 123.61 0.591726 123.609 0.597816 123.608L0.598648 123.607C0.59245 123.608 0.589084 123.609 0.588994 123.61Z" fill="black"/>
</svg>
