<svg width="19" height="19" viewBox="0 0 19 19" fill="none" xmlns="http://www.w3.org/2000/svg">
<path d="M10.425 12.5543L2.97253 20.0068C2.69369 20.2856 2.33881 20.425 1.90789 20.425C1.47696 20.425 1.12208 20.2856 0.84325 20.0068C0.564416 19.728 0.424999 19.3731 0.424999 18.9422C0.424999 18.5112 0.564416 18.1564 0.84325 17.8775L8.29572 10.425L0.84325 2.97258C0.564416 2.69374 0.424999 2.33886 0.424999 1.90794C0.424999 1.47701 0.564416 1.12213 0.84325 0.843299C1.12208 0.564465 1.47696 0.425049 1.90789 0.425049C2.33881 0.425049 2.69369 0.564465 2.97253 0.843299L10.425 8.29577L17.8775 0.843299C18.1563 0.564465 18.5112 0.425049 18.9421 0.425049C19.373 0.425049 19.7279 0.564465 20.0067 0.843299C20.2856 1.12213 20.425 1.47701 20.425 1.90794C20.425 2.33886 20.2856 2.69374 20.0067 2.97258L12.5543 10.425L20.0067 17.8775C20.2856 18.1564 20.425 18.5112 20.425 18.9422C20.425 19.3731 20.2856 19.728 20.0067 20.0068C19.7279 20.2856 19.373 20.425 18.9421 20.425C18.5112 20.425 18.1563 20.2856 17.8775 20.0068L10.425 12.5543Z" fill="white"/>
</svg>
